<svg width="64" height="57" viewBox="0 0 64 57" fill="none" xmlns="http://www.w3.org/2000/svg">
<path d="M6.68275 18.7568L10.5095 51.0869H53.4902L57.3169 18.7568L45.3844 26.6597L31.9998 8.04225L18.6152 26.6597L6.68275 18.7568ZM4.62656 10.2863L17.1214 18.5647L29.5776 1.2392C29.8529 0.855938 30.2163 0.543536 30.6376 0.327993C31.0589 0.112451 31.5259 0 31.9998 0C32.4737 0 32.9407 0.112451 33.362 0.327993C33.7833 0.543536 34.1468 0.855938 34.422 1.2392L46.8782 18.5647L59.376 10.2863C59.849 9.97362 60.4022 9.80202 60.9702 9.79176C61.5383 9.7815 62.0974 9.93302 62.5815 10.2284C63.0656 10.5238 63.4545 10.9507 63.7022 11.4587C63.9499 11.9666 64.0461 12.5345 63.9794 13.095L59.0904 54.3894C59.0051 55.1085 58.6571 55.7716 58.1125 56.2528C57.5678 56.734 56.8644 56.9999 56.1355 57H7.86409C7.13525 56.9999 6.43179 56.734 5.88714 56.2528C5.34248 55.7716 4.99452 55.1085 4.90925 54.3894L0.0202098 13.0921C-0.0458503 12.5317 0.0508151 11.9643 0.298795 11.4568C0.546774 10.9493 0.935715 10.5229 1.4197 10.2279C1.90369 9.93293 2.46252 9.78168 3.03022 9.79202C3.59793 9.80236 4.1508 9.97386 4.62358 10.2863H4.62656ZM31.9998 39.2606C30.4214 39.2606 28.9077 38.6376 27.7916 37.5287C26.6755 36.4198 26.0485 34.9157 26.0485 33.3475C26.0485 31.7792 26.6755 30.2752 27.7916 29.1663C28.9077 28.0573 30.4214 27.4344 31.9998 27.4344C33.5782 27.4344 35.092 28.0573 36.2081 29.1663C37.3241 30.2752 37.9512 31.7792 37.9512 33.3475C37.9512 34.9157 37.3241 36.4198 36.2081 37.5287C35.092 38.6376 33.5782 39.2606 31.9998 39.2606Z" fill="#ED1C24"/>
</svg>
