<svg width="120" height="120" viewBox="0 0 120 120" fill="none" xmlns="http://www.w3.org/2000/svg">
<circle cx="60" cy="60" r="58.5" fill="#D4BA97" stroke="#3C3E3E" stroke-width="3"/>
<path d="M83.4157 79.2033C80.0246 73.3408 74.7989 69.137 68.7003 67.1443C71.7169 65.3484 74.0607 62.612 75.3716 59.3553C76.6825 56.0985 76.8881 52.5015 75.9568 49.1166C75.0255 45.7317 73.0089 42.746 70.2165 40.6182C67.4242 38.4903 64.0106 37.3379 60.4999 37.3379C56.9892 37.3379 53.5756 38.4903 50.7832 40.6182C47.9909 42.746 45.9742 45.7317 45.043 49.1166C44.1117 52.5015 44.3173 56.0985 45.6282 59.3553C46.9391 62.612 49.2828 65.3484 52.2995 67.1443C46.2009 69.1348 40.9752 73.3386 37.5841 79.2033C37.4597 79.4061 37.3773 79.6317 37.3415 79.8669C37.3058 80.102 37.3175 80.342 37.376 80.5725C37.4345 80.8031 37.5385 81.0196 37.6821 81.2093C37.8256 81.399 38.0056 81.558 38.2116 81.677C38.4176 81.796 38.6453 81.8725 38.8813 81.902C39.1173 81.9316 39.3569 81.9135 39.5858 81.849C39.8148 81.7845 40.0285 81.6747 40.2143 81.5263C40.4002 81.3778 40.5544 81.1936 40.6679 80.9846C44.8627 73.7349 52.2772 69.4065 60.4999 69.4065C68.7226 69.4065 76.137 73.7349 80.3319 80.9846C80.4454 81.1936 80.5996 81.3778 80.7855 81.5263C80.9713 81.6747 81.185 81.7845 81.4139 81.849C81.6429 81.9135 81.8824 81.9316 82.1185 81.902C82.3545 81.8725 82.5822 81.796 82.7882 81.677C82.9941 81.558 83.1742 81.399 83.3177 81.2093C83.4612 81.0196 83.5653 80.8031 83.6238 80.5725C83.6823 80.342 83.694 80.102 83.6582 79.8669C83.6225 79.6317 83.54 79.4061 83.4157 79.2033ZM48.0311 53.3752C48.0311 50.9091 48.7624 48.4984 50.1325 46.4479C51.5026 44.3975 53.4499 42.7993 55.7283 41.8556C58.0067 40.9118 60.5137 40.6649 62.9324 41.146C65.3511 41.6271 67.5728 42.8147 69.3166 44.5585C71.0604 46.3022 72.2479 48.524 72.7291 50.9427C73.2102 53.3614 72.9632 55.8684 72.0195 58.1468C71.0758 60.4251 69.4776 62.3725 67.4272 63.7426C65.3767 65.1127 62.966 65.844 60.4999 65.844C57.1941 65.8404 54.0246 64.5256 51.6871 62.188C49.3495 59.8505 48.0347 56.681 48.0311 53.3752Z" fill="black"/>
</svg>
