<svg width="53" height="37" viewBox="0 0 53 37" fill="none" xmlns="http://www.w3.org/2000/svg">
<path d="M46.3438 13.75C48.2969 14.401 49.8594 15.5729 51.0312 17.2656C52.2031 18.8281 52.7891 20.5859 52.7891 22.5391C52.9193 24.4922 52.3984 26.4453 51.2266 28.3984C50.1849 30.2214 48.4922 31.7839 46.1484 33.0859C42.3724 35.0391 39.0521 35.5599 36.1875 34.6484C33.3229 33.6068 31.3047 32.0443 30.1328 29.9609C29.4818 28.9193 28.9609 27.487 28.5703 25.6641C28.3099 23.8411 28.1797 21.9531 28.1797 20C28.3099 17.9167 28.5703 15.8984 28.9609 13.9453C29.3516 11.9922 29.9375 10.3646 30.7188 9.0625C31.3698 8.15104 32.151 7.17448 33.0625 6.13281C33.8438 5.22135 34.7552 4.3099 35.7969 3.39844C36.9688 2.48698 38.2708 1.64062 39.7031 0.859375L46.5391 1.25C45.6276 2.29167 44.7812 3.26823 44 4.17969C43.349 4.96094 42.763 5.67708 42.2422 6.32812C41.7214 6.97917 41.2005 7.5651 40.6797 8.08594C39.7682 8.9974 39.0521 9.90885 38.5312 10.8203C38.0104 11.6016 37.5547 12.4479 37.1641 13.3594C36.9036 14.2708 36.9036 15.1823 37.1641 16.0938C38.8568 14.2708 40.8099 13.3594 43.0234 13.3594C44.0651 13.3594 45.1719 13.4896 46.3438 13.75ZM19.3906 14.7266C21.2135 15.7682 22.5156 17.2005 23.2969 19.0234C24.2083 20.7161 24.5339 22.5391 24.2734 24.4922C24.013 26.4453 23.1667 28.2682 21.7344 29.9609C20.4323 31.6536 18.4792 32.9557 15.875 33.8672C11.8385 35.1693 8.51823 35.1042 5.91406 33.6719C3.3099 32.1094 1.55208 30.2214 0.640625 28.0078C0.25 26.8359 0.0546875 25.3385 0.0546875 23.5156C0.0546875 21.6927 0.25 19.8047 0.640625 17.8516C1.03125 15.8984 1.55208 14.0104 2.20312 12.1875C2.85417 10.3646 3.70052 8.86719 4.74219 7.69531C5.52344 6.78385 6.4349 5.9375 7.47656 5.15625C8.38802 4.50521 9.42969 3.78906 10.6016 3.00781C11.9036 2.22656 13.3359 1.51042 14.8984 0.859375L21.7344 2.61719C20.6927 3.52865 19.7161 4.3099 18.8047 4.96094C18.0234 5.61198 17.3073 6.19792 16.6562 6.71875C16.0052 7.23958 15.3542 7.76042 14.7031 8.28125C13.7917 9.0625 13.0104 9.84375 12.3594 10.625C11.7083 11.276 11.1224 12.0573 10.6016 12.9688C10.0807 13.75 9.88542 14.5964 10.0156 15.5078C11.0573 14.7266 12.099 14.2708 13.1406 14.1406C14.3125 13.8802 15.3542 13.8151 16.2656 13.9453C17.3073 14.0755 18.349 14.3359 19.3906 14.7266Z" fill="white"/>
</svg>
