<svg width="48" height="48" viewBox="0 0 48 48" fill="none" xmlns="http://www.w3.org/2000/svg">
<circle cx="24" cy="24" r="24" fill="white"/>
<g opacity="0.7">
<path d="M35 13H17C16.4696 13 15.9609 13.2107 15.5858 13.5858C15.2107 13.9609 15 14.4696 15 15V17H13C12.4696 17 11.9609 17.2107 11.5858 17.5858C11.2107 17.9609 11 18.4696 11 19V33C11 33.5304 11.2107 34.0391 11.5858 34.4142C11.9609 34.7893 12.4696 35 13 35H31C31.5304 35 32.0391 34.7893 32.4142 34.4142C32.7893 34.0391 33 33.5304 33 33V31H35C35.5304 31 36.0391 30.7893 36.4142 30.4142C36.7893 30.0391 37 29.5304 37 29V15C37 14.4696 36.7893 13.9609 36.4142 13.5858C36.0391 13.2107 35.5304 13 35 13ZM17 15H35V22.8438L33.7412 21.5863C33.5555 21.4005 33.335 21.2531 33.0923 21.1526C32.8497 21.052 32.5896 21.0003 32.3269 21.0003C32.0642 21.0003 31.8041 21.052 31.5614 21.1526C31.3187 21.2531 31.0982 21.4005 30.9125 21.5863L28.4125 24.0863L22.9125 18.5863C22.5375 18.2115 22.029 18.0009 21.4987 18.0009C20.9685 18.0009 20.46 18.2115 20.085 18.5863L17 21.6713V15ZM31 33H13V19H15V29C15 29.5304 15.2107 30.0391 15.5858 30.4142C15.9609 30.7893 16.4696 31 17 31H31V33ZM35 29H17V24.5L21.5 20L27.7075 26.2075C27.895 26.3949 28.1493 26.5002 28.4144 26.5002C28.6795 26.5002 28.9337 26.3949 29.1213 26.2075L32.3288 23L35 25.6725V29ZM28 18.5C28 18.2033 28.088 17.9133 28.2528 17.6666C28.4176 17.42 28.6519 17.2277 28.926 17.1142C29.2001 17.0006 29.5017 16.9709 29.7926 17.0288C30.0836 17.0867 30.3509 17.2296 30.5607 17.4393C30.7704 17.6491 30.9133 17.9164 30.9712 18.2074C31.0291 18.4983 30.9993 18.7999 30.8858 19.074C30.7723 19.3481 30.58 19.5824 30.3334 19.7472C30.0867 19.912 29.7967 20 29.5 20C29.1022 20 28.7206 19.842 28.4393 19.5607C28.158 19.2794 28 18.8978 28 18.5Z" fill="black"/>
</g>
</svg>
