<svg width="52" height="57" viewBox="0 0 52 57" fill="none" xmlns="http://www.w3.org/2000/svg">
<path d="M11.9688 16.4062V3.09374C11.9688 2.50529 12.2025 1.94094 12.6186 1.52484C13.0347 1.10875 13.5991 0.874988 14.1875 0.874988C14.776 0.874988 15.3403 1.10875 15.7564 1.52484C16.1725 1.94094 16.4063 2.50529 16.4063 3.09374V16.4062C16.4063 16.9947 16.1725 17.559 15.7564 17.9751C15.3403 18.3912 14.776 18.625 14.1875 18.625C13.5991 18.625 13.0347 18.3912 12.6186 17.9751C12.2025 17.559 11.9688 16.9947 11.9688 16.4062ZM51.9063 3.09374V54.125C51.9063 54.7134 51.6725 55.2778 51.2564 55.6939C50.8403 56.11 50.276 56.3437 49.6875 56.3437C49.0991 56.3437 48.5347 56.11 48.1186 55.6939C47.7025 55.2778 47.4688 54.7134 47.4688 54.125V40.8125H34.1563C33.5678 40.8125 33.0035 40.5787 32.5874 40.1626C32.1713 39.7465 31.9375 39.1822 31.9375 38.5937C32.0406 33.2789 32.7118 27.9904 33.9399 22.8184C36.6524 11.5888 41.7943 4.06167 48.8139 1.05526C49.1513 0.910739 49.5193 0.852174 49.8848 0.884816C50.2504 0.917459 50.6022 1.04029 50.9087 1.2423C51.2151 1.44431 51.4667 1.71919 51.6408 2.04231C51.8149 2.36543 51.9061 2.7267 51.9063 3.09374ZM47.4688 6.94882C38.5466 13.7632 36.7994 30.3622 36.4582 36.375H47.4688V6.94882ZM25.2508 2.73042C25.2073 2.43908 25.1063 2.15931 24.9536 1.90743C24.8008 1.65555 24.5995 1.4366 24.3613 1.26335C24.1231 1.0901 23.8527 0.966017 23.566 0.898342C23.2794 0.830666 22.9821 0.820752 22.6915 0.869178C22.401 0.917603 22.123 1.0234 21.8737 1.18039C21.6245 1.33739 21.409 1.54244 21.2399 1.78359C21.0707 2.02473 20.9513 2.29715 20.8885 2.58494C20.8257 2.87274 20.8209 3.17015 20.8743 3.45983L23.0625 16.581C23.0625 18.9348 22.1275 21.1922 20.4631 22.8565C18.7987 24.5209 16.5413 25.456 14.1875 25.456C11.8337 25.456 9.57633 24.5209 7.91195 22.8565C6.24756 21.1922 5.31252 18.9348 5.31252 16.581L7.49799 3.45983C7.55137 3.17015 7.54654 2.87274 7.48377 2.58494C7.421 2.29715 7.30156 2.02473 7.1324 1.78359C6.96324 1.54244 6.74776 1.33739 6.49853 1.18039C6.24929 1.0234 5.97129 0.917603 5.68074 0.869178C5.39019 0.820752 5.0929 0.830666 4.80622 0.898342C4.51954 0.966017 4.2492 1.0901 4.01098 1.26335C3.77276 1.4366 3.57142 1.65555 3.41871 1.90743C3.26599 2.15931 3.16496 2.43908 3.1215 2.73042L0.902755 16.0429C0.883772 16.1631 0.874497 16.2846 0.875021 16.4062C0.879454 19.5508 1.99526 22.5926 4.02528 24.9941C6.0553 27.3956 8.86885 29.0022 11.9688 29.5301V54.125C11.9688 54.7134 12.2025 55.2778 12.6186 55.6939C13.0347 56.11 13.5991 56.3437 14.1875 56.3437C14.776 56.3437 15.3403 56.11 15.7564 55.6939C16.1725 55.2778 16.4063 54.7134 16.4063 54.125V29.5301C19.5062 29.0022 22.3197 27.3956 24.3498 24.9941C26.3798 22.5926 27.4956 19.5508 27.5 16.4062C27.4996 16.2845 27.4894 16.163 27.4695 16.0429L25.2508 2.73042Z" fill="#999999"/>
</svg>
